Coordinates
nRows=9
nColumns=38

# SIMM Motion File Header:
name Coordinates
datacolumns 38
datarows 9
otherdata 1
range 2.16560000000000000000 2.17360000000000000000

Units are S.I. units (second, meters, Newtons, ...)
Angles are in degrees.

endheader
time	pelvis_tilt	pelvis_list	pelvis_rotation	pelvis_tx	pelvis_ty	pelvis_tz	hip_flexion_r	hip_adduction_r	hip_rotation_r	knee_angle_r	ankle_angle_r	subtalar_angle_r	mtp_angle_r	hip_flexion_l	hip_adduction_l	hip_rotation_l	knee_angle_l	ankle_angle_l	subtalar_angle_l	mtp_angle_l	lumbar_extension	lumbar_bending	lumbar_rotation	arm_flex_r	arm_add_r	arm_rot_r	elbow_flex_r	pro_sup_r	wrist_flex_r	wrist_dev_r	arm_flex_l	arm_add_l	arm_rot_l	elbow_flex_l	pro_sup_l	wrist_flex_l	wrist_dev_l
      2.16560000000000000000	     -3.78768357880031290000	      1.99603061461003330000	     -4.86838654213176090000	      0.89225825564482630000	      1.09680919741333270000	     -0.31916671964714138000	     -3.32740600144655160000	      1.71045304384428110000	      2.59991068246684880000	    -40.41707806426004600000	     -5.63380982860650730000	     -0.00000000000005070866	      0.00000000000002408926	     24.71869108214818700000	      2.45770318341731730000	      0.03507000468417584300	    -20.91778256477045200000	     10.73490257725021600000	      0.00000000000000792401	     -0.00000000000001507009	    -11.94843161913548500000	     -2.58388419245218200000	     10.34795180246052800000	    -13.01658941843787600000	    -24.22466004789308500000	      1.67035991907207860000	    137.94627966070138000000	    102.77975336911560000000	     -0.00000000000002245703	     -0.00000000000003869683	    -37.57507994772368000000	    -18.70843103582823000000	      3.52344436686855690000	    117.59988407941589000000	     98.44904754398783100000	     -0.00000000000001014552	     -0.00000000000001214189
      2.16659999999999990000	     -3.75362052091747870000	      1.97986499778788680000	     -4.84130731078821160000	      0.89231565114089106000	      1.09650393461869730000	     -0.31921406860163920000	     -3.25159379919150650000	      1.72448416814827610000	      2.58172604136579850000	    -40.79428003395600700000	     -5.56215806995087550000	     -0.00000000000005073763	      0.00000000000002422299	     24.65569940087174000000	      2.45352165939945490000	     -0.07065088767521764100	    -20.96849513096132600000	     10.69632051844579800000	      0.00000000000000796609	     -0.00000000000001511162	    -11.96900557089571000000	     -2.57756547799372050000	     10.27355197082375100000	    -13.11737018402721200000	    -24.21359274449949300000	      1.71133564281778680000	    137.92503148955197000000	    102.82254373733630000000	     -0.00000000000002253561	     -0.00000000000003881932	    -37.54048757800981000000	    -18.72054588368824200000	      3.52261331248712880000	    117.64409158843999000000	     98.45436326129282600000	     -0.00000000000001017316	     -0.00000000000001220370
      2.16760000000000020000	     -3.71887626098176490000	      1.96389724131607870000	     -4.81432150553374600000	      0.89237220856151378000	      1.09618993187724030000	     -0.31926148856795544000	     -3.17498292209329860000	      1.73819226303444820000	      2.56323504083372060000	    -41.17350550036412900000	     -5.48653265095903020000	     -0.00000000000005076564	      0.00000000000002435645	     24.59214029761964700000	      2.44974998747805110000	     -0.17446606961776936000	    -21.02325949210972000000	     10.65522505184026000000	      0.00000000000000800661	     -0.00000000000001515261	    -11.99038426610032800000	     -2.57157532170514140000	     10.19824018067537700000	    -13.21814235755365100000	    -24.20275048252357300000	      1.75180735905772010000	    137.90097931294920000000	    102.86618959758209000000	     -0.00000000000002261404	     -0.00000000000003894038	    -37.50444325000742700000	    -18.73336564004873100000	      3.52224255365871610000	    117.68779137228151000000	     98.46038192260189700000	     -0.00000000000001020083	     -0.00000000000001226530
      2.16860000000000010000	     -3.68351697058790210000	      1.94814884834000400000	     -4.78743922656011910000	      0.89242784035305478000	      1.09586706534124300000	     -0.31930901963284580000	     -3.09749766727540490000	      1.75154044212031670000	      2.54442612402408130000	    -41.55472958518662100000	     -5.40704891024405840000	     -0.00000000000005079343	      0.00000000000002449002	     24.52811109791622000000	      2.44642278316528650000	     -0.27619156527035588000	    -21.08207638076078200000	     10.61181338916594000000	      0.00000000000000804718	     -0.00000000000001519311	    -12.01250443669669500000	     -2.56592688421118530000	     10.12203793626641300000	    -13.31889125848601600000	    -24.19213628540595500000	      1.79176120991705410000	    137.87412760320913000000	    102.91062863077438000000	     -0.00000000000002269288	     -0.00000000000003905963	    -37.46694834433116500000	    -18.74688159620934500000	      3.52233190798742960000	    117.73096356161926000000	     98.46709227721881100000	     -0.00000000000001022845	     -0.00000000000001232715
      2.16960000000000000000	     -3.64761222869919830000	      1.93264576746994910000	     -4.76066800766742040000	      0.89248244708884883000	      1.09553520283883210000	     -0.31935670779532749000	     -3.01905678413250290000	      1.76448813031906180000	      2.52529059677884900000	    -41.93793081275377000000	     -5.32382785206771030000	     -0.00000000000005082121	      0.00000000000002462299	     24.46372168102115900000	      2.44358046781669810000	     -0.37565211478575156000	    -21.14496051959475400000	     10.56630644365119700000	      0.00000000000000808925	     -0.00000000000001523364	    -12.03530064341256400000	     -2.56063766401075510000	     10.04496374418794400000	    -13.41960011426619900000	    -24.18175221141001400000	      1.83118499603881000000	    137.84448009971581000000	    102.95579658861517000000	     -0.00000000000002277203	     -0.00000000000003918034	    -37.42800216218760300000	    -18.76108516207635200000	      3.52288072056003190000	    117.77358771905347000000	     98.47448005969582100000	     -0.00000000000001025622	     -0.00000000000001238936
      2.17059999999999990000	     -3.61123442735621000000	      1.91741837757536950000	     -4.73401296400365720000	      0.89253591794822440000	      1.09519420469598020000	     -0.31940460447383251000	     -2.93957425643800230000	      1.77699105412632030000	      2.50582278897358490000	    -42.32309085989887600000	     -5.23699610223923790000	     -0.00000000000005085045	      0.00000000000002475734	     24.39909344625848000000	      2.44126918880283040000	     -0.47268150925641139000	    -21.21193987412464900000	     10.51895847352851400000	      0.00000000000000813081	     -0.00000000000001527412	    -12.05870592230082200000	     -2.55572958135260510000	      9.96703311612137280000	    -13.52024996155173000000	    -24.17159932506725900000	      1.87006825413489010000	    137.81203973938852000000	    103.00162730506021000000	     -0.00000000000002285114	     -0.00000000000003930266	    -37.38760190419464600000	    -18.77596791578793800000	      3.52388781200161640000	    117.81564283962771000000	     98.48252770900862200000	     -0.00000000000001028377	     -0.00000000000001245200
      2.17160000000000020000	     -3.57448257226440670000	      1.90250118448661550000	     -4.70747640737939310000	      0.89258812118645070000	      1.09484388109186350000	     -0.31945276723342991000	     -2.85893000915327540000	      1.78900401674832120000	      2.48602069438616000000	    -42.71020256145125400000	     -5.14668333458181150000	     -0.00000000000005088047	      0.00000000000002489275	     24.33438906199111800000	      2.43953805563614260000	     -0.56712336730687096000	    -21.28306367706140600000	     10.47004294648530200000	      0.00000000000000817353	     -0.00000000000001531369	    -12.08262491645051500000	     -2.55122649873602380000	      9.88825932300210300000	    -13.62082411639178200000	    -24.16167642829939800000	      1.90840267802988460000	    137.77680758320849000000	    103.04805453742344000000	     -0.00000000000002293044	     -0.00000000000003942645	    -37.34574631153483200000	    -18.79152122046783500000	      3.52535120542538220000	    117.85710527703822000000	     98.49121489035434300000	     -0.00000000000001031140	     -0.00000000000001251533
      2.17260000000000010000	     -3.53753202520896930000	      1.88793227359096340000	     -4.68105634888732780000	      0.89263888403235803000	      1.09448390293130540000	     -0.31950126262953110000	     -2.77690869334924880000	      1.80048651507564910000	      2.46588649061462830000	    -43.09928637650852300000	     -5.05301731182108950000	     -0.00000000000005091089	      0.00000000000002502936	     24.26987525627751600000	      2.43843379497525080000	     -0.65883204133552453000	    -21.35842006301662000000	     10.41980598782852000000	      0.00000000000000821800	     -0.00000000000001535197	    -12.10687773358246500000	     -2.54714905049553850000	      9.80865436679964550000	    -13.72131749136082700000	    -24.15197742153696200000	      1.94618293499727970000	    137.73878064584429000000	    103.09501576220008000000	     -0.00000000000002301019	     -0.00000000000003955253	    -37.30244324063468800000	    -18.80773534907196500000	      3.52726763045746110000	    117.89794444478683000000	     98.50051985988506000000	     -0.00000000000001033921	     -0.00000000000001257834
      2.17360000000000000000	     -3.50053009192880940000	      1.87374695271094140000	     -4.65475557848681110000	      0.89268804422890791000	      1.09411397941829770000	     -0.31955014904460594000	     -2.69332954527705580000	      1.81139942192542120000	      2.44543320658954900000	    -43.49035470250874600000	     -4.95613522294048000000	     -0.00000000000005094162	      0.00000000000002516740	     24.20578195931961600000	      2.43800393749619860000	     -0.74766590975766900000	    -21.43808420481554900000	     10.36894973751578800000	      0.00000000000000826179	     -0.00000000000001539091	    -12.13131676750772100000	     -2.54351828939377310000	      9.72823361964642070000	    -13.82171893157066500000	    -24.14249931149293400000	      1.98340435025274700000	    137.69795811471838000000	    103.14244274983002000000	     -0.00000000000002308943	     -0.00000000000003967840	    -37.25769619076583400000	    -18.82459955451058800000	      3.52963373102725650000	    117.93813253848360000000	     98.51041682199996800000	     -0.00000000000001036708	     -0.00000000000001264062
